<svg xmlns="http://www.w3.org/2000/svg"><defs><font id="icomoon" horiz-adv-x="1024"><font-face units-per-em="1024" ascent="960" descent="-64"/><glyph horiz-adv-x="512"/><glyph unicode="" glyph-name="tag" d="M949.632 482.994 541.177 893.06a58.297 58.297 0 0 1-41.323 17.163H115.698c-32.215 0-58.347-26.132-58.347-58.404V467.691a58.411 58.411 0 0 1 17.108-41.296L483.748 17.079C495.133 5.694 510.075 0 524.987 0s29.854 5.694 41.239 17.079L949.549 400.43c22.773 22.772 22.8 59.737.084 82.564zm-139.604-61.263L545.064 156.767c-11.109-11.108-29.074-11.108-40.156 0l-333.863 333.89v277.349c0 15.691 12.718 28.437 28.382 28.437h277.46l333.168-334.5c11.108-11.109 11.052-29.104-.027-40.213zm-354.83 175.595c0-47.127-38.185-85.34-85.257-85.34-47.1 0-85.257 38.213-85.257 85.34 0 47.129 38.156 85.34 85.257 85.34 47.07 0 85.257-38.212 85.257-85.34z"/><glyph unicode="" glyph-name="coffee" d="M204.8 409.6H102.4C45.846 409.6 0 455.446 0 512v204.8c0 56.32 46.08 102.4 102.4 102.4h102.4v102.4h716.8v-512c0-113.108-91.692-204.8-204.8-204.8H409.6c-113.108 0-204.8 91.692-204.8 204.8zm0 102.4v204.8H102.4V512h102.4zM102.4 102.4v51.2H1024v-51.2L819.2 0h-512L102.4 102.4z"/><glyph unicode="" glyph-name="mic" d="M460.8 51.2v54.272c-203.112 26.323-358.4 198.221-358.4 406.387v.149V512h102.4c0-169.662 137.538-307.2 307.2-307.2S819.2 342.338 819.2 512h102.4v-.141c0-208.167-155.288-380.064-356.342-406.169l-2.058-.218V51.2h153.6V-51.2H307.2V51.2h153.6zM307.2 768c0 113.108 91.692 204.8 204.8 204.8S716.8 881.108 716.8 768V512c0-113.108-91.692-204.8-204.8-204.8S307.2 398.892 307.2 512v256z"/><glyph unicode="" glyph-name="pin" d="M563.2 358.4h307.2v51.2l-153.6 51.2v409.6l153.6 51.2v51.2H153.6v-51.2l153.6-51.2V460.8l-153.6-51.2v-51.2h307.2V0L512-51.2 563.2 0v358.4z"/><glyph unicode="" glyph-name="heart1" d="M711.111 739.555c78.416 0 142.222-76.555 142.222-170.667 0-179.445-217.223-324.999-341.333-386.86-124.251 61.943-341.333 207.472-341.333 386.86 0 94.112 63.806 170.667 142.222 170.667 36.583 0 76.612-25.028 107.111-66.944l46-50.389c22.722-31.221 69.278-31.221 92 0l46 50.389c30.5 41.916 70.528 66.944 107.111 66.944zm0 113.778c-80.473 0-152.167-49.278-199.111-113.778-46.944 64.5-118.638 113.778-199.111 113.778-141.388 0-256-127.362-256-284.444 0-325.333 455.111-512 455.111-512s455.111 186.667 455.111 512c0 157.083-114.612 284.444-256 284.444z"/><glyph unicode="" glyph-name="brightness-up" d="M512 256c-113.108 0-204.8 91.692-204.8 204.8S398.892 665.6 512 665.6c113.108 0 204.8-91.692 204.8-204.8S625.108 256 512 256zm-51.2 665.6c0 28.277 22.923 51.2 51.2 51.2s51.2-22.923 51.2-51.2V819.2c0-28.277-22.923-51.2-51.2-51.2s-51.2 22.923-51.2 51.2v102.4zm340.48-99.328c9.446 10.984 23.36 17.897 38.889 17.897 28.277 0 51.2-22.923 51.2-51.2 0-15.528-6.913-29.442-17.829-38.832l-.067-.057-71.68-71.68c-9.446-10.984-23.36-17.897-38.889-17.897-28.277 0-51.2 22.923-51.2 51.2 0 15.528 6.913 29.442 17.829 38.832l.067.057 71.68 71.68zM972.288 512c28.277 0 51.2-22.923 51.2-51.2s-22.923-51.2-51.2-51.2H870.912c-28.277 0-51.2 22.923-51.2 51.2s22.923 51.2 51.2 51.2h101.376zm-98.816-340.48c10.984-9.446 17.897-23.36 17.897-38.889 0-28.277-22.923-51.2-51.2-51.2-15.528 0-29.442 6.913-38.832 17.829l-.057.067-71.68 71.68c-10.984 9.446-17.897 23.36-17.897 38.889 0 28.277 22.923 51.2 51.2 51.2 15.528 0 29.442-6.913 38.832-17.829l.057-.067 71.68-71.68zM563.2.512c0-28.277-22.923-51.2-51.2-51.2s-51.2 22.923-51.2 51.2v101.376c0 28.277 22.923 51.2 51.2 51.2s51.2-22.923 51.2-51.2V.512zM222.72 99.328c-9.446-10.984-23.36-17.897-38.889-17.897-28.277 0-51.2 22.923-51.2 51.2 0 15.528 6.913 29.442 17.829 38.832l.067.057 71.68 71.68c9.446 10.984 23.36 17.897 38.889 17.897 28.277 0 51.2-22.923 51.2-51.2 0-15.528-6.913-29.442-17.829-38.832l-.067-.057-71.68-71.68zM51.712 409.6c-28.277 0-51.2 22.923-51.2 51.2s22.923 51.2 51.2 51.2h101.376c28.277 0 51.2-22.923 51.2-51.2s-22.923-51.2-51.2-51.2H51.712zm98.816 340.48c-10.984 9.446-17.897 23.36-17.897 38.889 0 28.277 22.923 51.2 51.2 51.2 15.528 0 29.442-6.913 38.832-17.829l.057-.067 71.68-71.68c10.984-9.446 17.897-23.36 17.897-38.889 0-28.277-22.923-51.2-51.2-51.2-15.528 0-29.442 6.913-38.832 17.829l-.057.067-71.68 71.68z"/><glyph unicode="" glyph-name="cheveron-outline-down" d="M1024 460.8c0-282.77-229.23-512-512-512S0 178.03 0 460.8s229.23 512 512 512 512-229.23 512-512zM512 870.4c-226.216 0-409.6-183.384-409.6-409.6S285.784 51.2 512 51.2c226.216 0 409.6 183.384 409.6 409.6S738.216 870.4 512 870.4zm-35.84-539.648L294.4 512l72.192 72.192L512 440.32l144.896 144.384L729.088 512 512 294.912l-35.84 35.84z"/><glyph unicode="" glyph-name="cheveron-outline-left" d="M512-51.2c-282.77 0-512 229.23-512 512s229.23 512 512 512 512-229.23 512-512-229.23-512-512-512zm409.6 512c0 226.216-183.384 409.6-409.6 409.6S102.4 687.016 102.4 460.8c0-226.216 183.384-409.6 409.6-409.6s409.6 183.384 409.6 409.6zm-539.648 35.84L563.2 678.4l72.192-72.192L491.52 460.8l144.384-144.896-72.704-72.192L346.112 460.8l35.84 35.84z"/><glyph unicode="" glyph-name="cheveron-outline-right" d="M512 972.8c282.77 0 512-229.23 512-512s-229.23-512-512-512S0 178.03 0 460.8s229.23 512 512 512zm-409.6-512c0-226.216 183.384-409.6 409.6-409.6s409.6 183.384 409.6 409.6c0 226.216-183.384 409.6-409.6 409.6S102.4 687.016 102.4 460.8zm539.648-35.84L460.8 243.2l-72.192 72.192L532.48 460.8 389.12 605.696l71.68 72.192L677.888 460.8l-35.84-35.84z"/><glyph unicode="" glyph-name="cheveron-outline-up" d="M0 460.8c0 282.77 229.23 512 512 512s512-229.23 512-512-229.23-512-512-512S0 178.03 0 460.8zM512 51.2c226.216 0 409.6 183.384 409.6 409.6S738.216 870.4 512 870.4c-226.216 0-409.6-183.384-409.6-409.6S285.784 51.2 512 51.2zm35.84 539.648L729.6 409.6l-72.192-72.192L512 481.28 367.104 337.92l-72.192 71.68L512 626.688l35.84-35.84z"/><glyph unicode="" glyph-name="dashboard" d="M512-51.2c-282.77 0-512 229.23-512 512s229.23 512 512 512 512-229.23 512-512-229.23-512-512-512zM225.28 168.448c80.288 55.312 179.647 88.345 286.72 88.345s206.432-33.033 288.44-89.464l-1.72 1.119c75.859 74.399 122.88 177.965 122.88 292.513 0 226.216-183.384 409.6-409.6 409.6s-409.6-183.384-409.6-409.6c0-114.548 47.021-218.114 122.814-292.449l.066-.064zm313.344 391.168L693.248 714.24l72.192-72.192-154.624-154.624c2.245-7.999 3.535-17.186 3.535-26.673 0-56.554-45.846-102.4-102.4-102.4s-102.4 45.846-102.4 102.4c0 56.554 45.846 102.4 102.4 102.4 9.488 0 18.674-1.29 27.393-3.705l-.72.17z"/><glyph unicode="" glyph-name="location1" d="M512-51.2S153.6 416.256 153.6 614.4c0 197.939 160.461 358.4 358.4 358.4s358.4-160.461 358.4-358.4C870.4 416.256 512-51.2 512-51.2zm0 563.2c56.554 0 102.4 45.846 102.4 102.4S568.554 716.8 512 716.8c-56.554 0-102.4-45.846-102.4-102.4S455.446 512 512 512z"/><glyph unicode="" glyph-name="time" d="M512-51.2c-282.77 0-512 229.23-512 512s229.23 512 512 512 512-229.23 512-512-229.23-512-512-512zm0 102.4c226.216 0 409.6 183.384 409.6 409.6S738.216 870.4 512 870.4c-226.216 0-409.6-183.384-409.6-409.6S285.784 51.2 512 51.2zm-51.2 388.608V768h102.4V481.792l202.24-202.24-72.192-72.192L460.8 439.808z"/><glyph unicode="" glyph-name="location" d="M512 960c-176.732 0-320-143.268-320-320 0-320 320-704 320-704s320 384 320 704c0 176.732-143.27 320-320 320zm0-512c-106.04 0-192 85.96-192 192s85.96 192 192 192 192-85.96 192-192-85.96-192-192-192z"/><glyph unicode="" glyph-name="location2" d="M512 960c-176.732 0-320-143.268-320-320 0-320 320-704 320-704s320 384 320 704c0 176.732-143.27 320-320 320zm0-516c-108.248 0-196 87.752-196 196s87.752 196 196 196 196-87.752 196-196-87.752-196-196-196zM388 640c0 68.483 55.517 124 124 124s124-55.517 124-124-55.517-124-124-124-124 55.517-124 124z"/><glyph unicode="" glyph-name="compass2" d="M512 960C229.23 960 0 730.77 0 448S229.23-64 512-64s512 229.23 512 512-229.23 512-512 512zM96 448c0 229.75 186.25 416 416 416 109.574 0 209.232-42.386 283.534-111.628L384 576 207.628 164.466C138.386 238.768 96 338.426 96 448zm489.166-73.166-256.082-109.75 109.75 256.082 146.332-146.332zM512 32c-109.574 0-209.234 42.386-283.532 111.628L640 320l176.372 411.532C885.614 657.234 928 557.574 928 448c0-229.75-186.25-416-416-416z"/><glyph unicode="" glyph-name="clock" d="M658.744 210.744 448 421.49V704h128V474.51l173.256-173.254zM512 960C229.23 960 0 730.77 0 448S229.23-64 512-64s512 229.23 512 512-229.23 512-512 512zm0-896c-212.078 0-384 171.922-384 384s171.922 384 384 384 384-171.922 384-384S724.078 64 512 64z"/><glyph unicode="" glyph-name="calendar" d="M320 576h128V448H320zm192 0h128V448H512zm192 0h128V448H704zM128 192h128V64H128zm192 0h128V64H320zm192 0h128V64H512zM320 384h128V256H320zm192 0h128V256H512zm192 0h128V256H704zm-576 0h128V256H128zm704 576v-64H704v64H256v-64H128v64H0V-64h960V960H832zM896 0H64v704h832V0z"/><glyph unicode="" glyph-name="book" d="M896 832V0H224c-53.026 0-96 42.98-96 96s42.974 96 96 96h608v768H192c-70.398 0-128-57.6-128-128V64C64-6.4 121.602-64 192-64h768v896h-64zM224.056 128c-.018-.002-.038 0-.056 0-17.672 0-32-14.326-32-32s14.328-32 32-32l.056.002V64h607.89v64h-607.89z"/><glyph unicode="" glyph-name="price-tag" d="M976 960H592c-26.4 0-63.274-15.274-81.942-33.942L33.942 449.942c-18.668-18.668-18.668-49.214 0-67.882L446.06-30.058c18.668-18.668 49.214-18.668 67.882 0L990.06 446.06C1008.726 464.726 1024 501.6 1024 528v384c0 26.4-21.6 48-48 48zM736 576c-53.02 0-96 42.98-96 96s42.98 96 96 96 96-42.98 96-96-42.98-96-96-96z"/><glyph unicode="" glyph-name="price-tags" horiz-adv-x="1280" d="M1232 960H848c-26.4 0-63.274-15.274-81.942-33.942L289.942 449.942c-18.668-18.668-18.668-49.214 0-67.882L702.06-30.058c18.668-18.668 49.214-18.668 67.882 0L1246.06 446.06C1264.726 464.726 1280 501.6 1280 528v384c0 26.4-21.6 48-48 48zM992 576c-53.02 0-96 42.98-96 96s42.98 96 96 96 96-42.98 96-96-42.98-96-96-96zM128 416l544 544h-80c-26.4 0-63.274-15.274-81.942-33.942L33.942 449.942c-18.668-18.668-18.668-49.214 0-67.882L446.06-30.058c18.668-18.668 49.214-18.668 67.882 0L544 0 128 416z"/><glyph unicode="" glyph-name="alarm" d="M512 832C264.576 832 64 631.424 64 384S264.576-64 512-64s448 200.576 448 448-200.576 448-448 448zm0-808c-198.824 0-360 161.178-360 360 0 198.824 161.176 360 360 360 198.822 0 360-161.176 360-360 0-198.822-161.178-360-360-360zm422.784 648.826C950.826 700.878 960 733.368 960 768c0 106.04-85.96 192-192 192-61.818 0-116.802-29.222-151.92-74.596 131.884-27.236 245.206-105.198 318.704-212.578zM407.92 885.404C372.804 930.778 317.818 960 256 960c-106.04 0-192-85.96-192-192 0-34.632 9.174-67.122 25.216-95.174 73.5 107.38 186.822 185.342 318.704 212.578zM512 384v256h-64V320h256v64z"/><glyph unicode="" glyph-name="stopwatch" d="M512.002 766.788V832h128v64c0 35.346-28.654 64-64.002 64H384.002c-35.346 0-64-28.654-64-64v-64h128v-65.212c-214.798-16.338-384-195.802-384-414.788 0-229.75 186.25-416 416-416s416 186.25 416 416c0 218.984-169.202 398.448-384 414.788zm194.274-641.062C645.834 65.286 565.478 32 480.002 32s-165.834 33.286-226.274 93.726-93.726 140.8-93.726 226.274 33.286 165.834 93.726 226.274c58.04 58.038 134.448 91.018 216.114 93.548l-21.678-314.02C446.304 331.512 460.628 320 480 320s33.698 11.512 31.836 37.802L490.16 671.824c81.666-2.532 158.076-35.512 216.116-93.55 60.44-60.44 93.726-140.8 93.726-226.274s-33.286-165.834-93.726-226.274z"/><glyph unicode="" glyph-name="meter" d="M512 896c282.77 0 512-229.23 512-512 0-192.792-106.576-360.666-264.008-448H264.008C106.576 23.334 0 191.208 0 384c0 282.77 229.23 512 512 512zM801.914 94.086C879.352 171.526 922 274.484 922 384h-90v64h85.038c-7.014 44.998-21.39 88.146-42.564 128H768v64h64.284a417.023 417.023 0 0 1-30.37 33.914c-46.222 46.22-101.54 80.038-161.914 99.798V704h-64v85.04a415.443 415.443 0 0 1-128 0V704h-64v69.712c-60.372-19.76-115.692-53.576-161.914-99.798A417.023 417.023 0 0 1 191.716 640H256v-64H149.524c-21.174-39.854-35.552-83.002-42.564-128H192v-64h-90c0-109.516 42.648-212.474 120.086-289.914A417.053 417.053 0 0 1 255.646 64H448l36.572 512h54.856L576 64h192.354a417.093 417.093 0 0 1 33.56 30.086z"/><glyph unicode="" glyph-name="bin" d="M128 640V0c0-35.2 28.8-64 64-64h576c35.2 0 64 28.8 64 64v640H128zM320 64h-64v448h64V64zm128 0h-64v448h64V64zm128 0h-64v448h64V64zm128 0h-64v448h64V64zm144 768H640v80c0 26.4-21.6 48-48 48H368c-26.4 0-48-21.6-48-48v-80H112c-26.4 0-48-21.6-48-48v-80h832v80c0 26.4-21.6 48-48 48zm-272 0H384v63.198h192V832z"/><glyph unicode="" glyph-name="clipboard" d="M928 832H640c0 70.692-57.306 128-128 128-70.692 0-128-57.308-128-128H96c-17.672 0-32-14.328-32-32V-32c0-17.674 14.328-32 32-32h832c17.674 0 32 14.326 32 32v832c0 17.672-14.326 32-32 32zm-416 64c35.346 0 64-28.654 64-64s-28.654-64-64-64c-35.346 0-64 28.654-64 64s28.654 64 64 64zM896 0H128v768h128v-96c0-17.672 14.328-32 32-32h448c17.674 0 32 14.328 32 32v96h128V0zM448 101.49 242.746 338.744l58.508 58.51L448 282.51l274.742 242.744 58.514-58.508z"/><glyph unicode="" glyph-name="link" d="M440.236 324.234c-13.31 0-26.616 5.076-36.77 15.23-95.134 95.136-95.134 249.934 0 345.07l192 192C641.554 922.62 702.826 948 768 948s126.448-25.38 172.536-71.464c95.132-95.136 95.132-249.934 0-345.07L852.77 443.7c-20.308-20.308-53.23-20.308-73.54 0-20.306 20.306-20.306 53.232 0 73.54l87.766 87.766c54.584 54.586 54.584 143.404 0 197.99C840.554 829.438 805.396 844 768 844s-72.552-14.562-98.996-41.006l-192-191.998c-54.586-54.586-54.586-143.406 0-197.992 20.308-20.306 20.306-53.232 0-73.54-10.15-10.152-23.462-15.23-36.768-15.23zM256-52c-65.176 0-126.45 25.38-172.534 71.464-95.134 95.136-95.134 249.934 0 345.07l87.764 87.764c20.308 20.306 53.234 20.306 73.54 0 20.308-20.306 20.308-53.232 0-73.54l-87.764-87.764c-54.586-54.586-54.586-143.406 0-197.992C183.446 66.562 218.604 52 256 52s72.552 14.562 98.998 41.006l192 191.998c54.584 54.586 54.584 143.406 0 197.992-20.308 20.308-20.306 53.232 0 73.54 20.306 20.306 53.232 20.306 73.54-.002 95.132-95.134 95.132-249.932.002-345.068l-192.002-192C382.448-26.622 321.174-52 256-52z"/><glyph unicode="" glyph-name="eye-plus" d="M1024 832H896v128H768V832H640V704h128V576h128v128h128zM863.862 513.972A490.737 490.737 0 0 0 913.884 448c-38.292-60.522-89.274-111.922-149.436-150.296C688.854 249.486 601.558 224 512 224c-89.56 0-176.86 25.486-252.454 73.704C199.39 336.076 148.41 387.476 110.116 448c38.292 60.524 89.274 111.924 149.434 150.296 3.918 2.5 7.876 4.922 11.862 7.3C261.45 578.268 256 548.774 256 518c0-141.382 114.616-256 256-256 141.38 0 256 114.618 256 256 0 .692-.018 1.38-.024 2.072-109.284 28.138-190.298 126.63-191.932 244.31A569.22 569.22 0 0 1 512 768C288.682 768 95.118 637.958 0 448c95.118-189.958 288.682-320 512-320 223.31 0 416.876 130.042 512 320a588.798 588.798 0 0 1-62.65 99.054c-29.28-17.178-62.272-28.71-97.488-33.082zM416 640c53.02 0 96-42.982 96-96 0-53.02-42.98-96-96-96s-96 42.98-96 96 42.98 96 96 96z"/><glyph unicode="" glyph-name="eye-blocked" d="M945.942 945.942c-18.746 18.744-49.136 18.744-67.882 0L675.896 743.778C623.958 759.532 568.948 768 512 768 288.682 768 95.118 637.958 0 448c41.122-82.124 100.648-153.04 173.022-207.096L14.06 81.942c-18.746-18.746-18.746-49.136 0-67.882C23.432 4.686 35.716 0 48 0s24.568 4.686 33.942 14.058l864 864c18.744 18.746 18.744 49.138 0 67.884zM416 640c42.24 0 78.082-27.294 90.92-65.196L385.196 453.08C347.294 465.918 320 501.76 320 544c0 53.02 42.98 96 96 96zM110.116 448c38.292 60.524 89.274 111.924 149.434 150.296 3.918 2.5 7.876 4.922 11.862 7.3C261.45 578.268 256 548.774 256 518c0-54.89 17.286-105.738 46.7-147.418l-60.924-60.924C189.33 346.5 144.574 393.54 110.116 448zM768 518c0 27.166-4.256 53.334-12.102 77.898L434.09 274.09C458.658 266.248 484.832 262 512 262c141.382 0 256 114.618 256 256zm62.026 152.026-69.362-69.362c1.264-.786 2.53-1.568 3.786-2.368C824.612 559.922 875.592 508.522 913.884 448c-38.292-60.522-89.274-111.922-149.436-150.296C688.854 249.486 601.558 224 512 224a468.97 468.97 0 0 0-113.962 14.04l-76.894-76.894C380.862 139.684 445.094 128 512 128c223.31 0 416.876 130.042 512 320-45.022 89.916-112.118 166.396-193.974 222.026z"/><glyph unicode="" glyph-name="bookmark" d="M192 960V-64l320 320L832-64V960z"/><glyph unicode="" glyph-name="bookmarks" d="M256 832V-64l320 320L896-64v896zm512 128H128V64l64 64v768h576z"/><glyph unicode="" glyph-name="sun" d="M512 128c35.346 0 64-28.654 64-64V0c0-35.346-28.654-64-64-64s-64 28.654-64 64v64c0 35.346 28.654 64 64 64zm0 640c-35.346 0-64 28.654-64 64v64c0 35.346 28.654 64 64 64s64-28.654 64-64v-64c0-35.346-28.654-64-64-64zm448-256c35.346 0 64-28.654 64-64s-28.654-64-64-64h-64c-35.348 0-64 28.654-64 64s28.652 64 64 64h64zm-768-64c0-35.346-28.654-64-64-64H64c-35.346 0-64 28.654-64 64s28.654 64 64 64h64c35.346 0 64-28.654 64-64zm636.784-226.274 45.256-45.258c24.992-24.99 24.992-65.516 0-90.508-24.994-24.992-65.518-24.992-90.51 0l-45.256 45.256c-24.992 24.99-24.992 65.516 0 90.51 24.994 24.992 65.518 24.992 90.51 0zM195.216 674.274 149.96 719.53c-24.994 24.994-24.994 65.516 0 90.51s65.516 24.994 90.51 0l45.256-45.256c24.994-24.994 24.994-65.516 0-90.51s-65.516-24.994-90.51 0zm633.568 0c-24.992-24.992-65.516-24.992-90.51 0-24.992 24.994-24.992 65.516 0 90.51l45.256 45.254c24.992 24.994 65.516 24.994 90.51 0 24.992-24.994 24.992-65.516 0-90.51l-45.256-45.254zM195.216 221.726c24.992 24.992 65.518 24.992 90.508 0 24.994-24.994 24.994-65.52 0-90.51L240.47 85.96c-24.994-24.992-65.516-24.992-90.51 0s-24.994 65.518 0 90.508l45.256 45.258zM512 704c-141.384 0-256-114.616-256-256 0-141.382 114.616-256 256-256 141.382 0 256 114.618 256 256 0 141.384-114.616 256-256 256zm0-416c-88.366 0-160 71.634-160 160s71.634 160 160 160 160-71.634 160-160-71.634-160-160-160z"/><glyph unicode="" glyph-name="heart" d="M755.188 896c-107.63 0-200.258-87.554-243.164-179-42.938 91.444-135.578 179-243.216 179C120.426 896 0 775.56 0 627.168 0 325.322 304.5 246.174 512.022-52.25 708.176 244.326 1024 334.956 1024 627.168 1024 775.56 903.57 896 755.188 896z"/></font>
</defs>
</svg>
